<svg xmlns="http://www.w3.org/2000/svg" width="1024" height="500"><defs><linearGradient id="g" x2="1" y2="1"><stop stop-color="#07090f"/><stop offset="1" stop-color="#12253f"/></linearGradient></defs><rect width="1024" height="500" fill="url(#g)"/><circle cx="61" cy="17" r="2" fill="#b9d4ff" opacity="0.15"/><circle cx="200" cy="100" r="0.8" fill="#b9d4ff" opacity="0.25"/><circle cx="339" cy="183" r="0.8" fill="#b9d4ff" opacity="0.35"/><circle cx="478" cy="266" r="0.8" fill="#b9d4ff" opacity="0.45000000000000007"/><circle cx="617" cy="349" r="0.8" fill="#b9d4ff" opacity="0.55"/><circle cx="756" cy="432" r="0.8" fill="#b9d4ff" opacity="0.15"/><circle cx="895" cy="15" r="0.8" fill="#b9d4ff" opacity="0.25"/><circle cx="10" cy="98" r="0.8" fill="#b9d4ff" opacity="0.35"/><circle cx="149" cy="181" r="2" fill="#b9d4ff" opacity="0.45000000000000007"/><circle cx="288" cy="264" r="0.8" fill="#b9d4ff" opacity="0.55"/><circle cx="427" cy="347" r="0.8" fill="#b9d4ff" opacity="0.15"/><circle cx="566" cy="430" r="0.8" fill="#b9d4ff" opacity="0.25"/><circle cx="705" cy="13" r="0.8" fill="#b9d4ff" opacity="0.35"/><circle cx="844" cy="96" r="0.8" fill="#b9d4ff" opacity="0.45000000000000007"/><circle cx="983" cy="179" r="0.8" fill="#b9d4ff" opacity="0.55"/><circle cx="98" cy="262" r="0.8" fill="#b9d4ff" opacity="0.15"/><circle cx="237" cy="345" r="2" fill="#b9d4ff" opacity="0.25"/><circle cx="376" cy="428" r="0.8" fill="#b9d4ff" opacity="0.35"/><circle cx="515" cy="11" r="0.8" fill="#b9d4ff" opacity="0.45000000000000007"/><circle cx="654" cy="94" r="0.8" fill="#b9d4ff" opacity="0.55"/><circle cx="793" cy="177" r="0.8" fill="#b9d4ff" opacity="0.15"/><circle cx="932" cy="260" r="0.8" fill="#b9d4ff" opacity="0.25"/><circle cx="47" cy="343" r="0.8" fill="#b9d4ff" opacity="0.35"/><circle cx="186" cy="426" r="0.8" fill="#b9d4ff" opacity="0.45000000000000007"/><circle cx="325" cy="9" r="2" fill="#b9d4ff" opacity="0.55"/><circle cx="464" cy="92" r="0.8" fill="#b9d4ff" opacity="0.15"/><circle cx="603" cy="175" r="0.8" fill="#b9d4ff" opacity="0.25"/><circle cx="742" cy="258" r="0.8" fill="#b9d4ff" opacity="0.35"/><circle cx="881" cy="341" r="0.8" fill="#b9d4ff" opacity="0.45000000000000007"/><circle cx="1020" cy="424" r="0.8" fill="#b9d4ff" opacity="0.55"/><circle cx="135" cy="7" r="0.8" fill="#b9d4ff" opacity="0.15"/><circle cx="274" cy="90" r="0.8" fill="#b9d4ff" opacity="0.25"/><circle cx="413" cy="173" r="2" fill="#b9d4ff" opacity="0.35"/><circle cx="552" cy="256" r="0.8" fill="#b9d4ff" opacity="0.45000000000000007"/><circle cx="691" cy="339" r="0.8" fill="#b9d4ff" opacity="0.55"/><circle cx="830" cy="422" r="0.8" fill="#b9d4ff" opacity="0.15"/><circle cx="969" cy="5" r="0.8" fill="#b9d4ff" opacity="0.25"/><circle cx="84" cy="88" r="0.8" fill="#b9d4ff" opacity="0.35"/><circle cx="223" cy="171" r="0.8" fill="#b9d4ff" opacity="0.45000000000000007"/><circle cx="362" cy="254" r="0.8" fill="#b9d4ff" opacity="0.55"/><circle cx="501" cy="337" r="2" fill="#b9d4ff" opacity="0.15"/><circle cx="640" cy="420" r="0.8" fill="#b9d4ff" opacity="0.25"/><circle cx="779" cy="3" r="0.8" fill="#b9d4ff" opacity="0.35"/><circle cx="918" cy="86" r="0.8" fill="#b9d4ff" opacity="0.45000000000000007"/><circle cx="33" cy="169" r="0.8" fill="#b9d4ff" opacity="0.55"/><circle cx="172" cy="252" r="0.8" fill="#b9d4ff" opacity="0.15"/><circle cx="311" cy="335" r="0.8" fill="#b9d4ff" opacity="0.25"/><circle cx="450" cy="418" r="0.8" fill="#b9d4ff" opacity="0.35"/><circle cx="589" cy="1" r="2" fill="#b9d4ff" opacity="0.45000000000000007"/><circle cx="728" cy="84" r="0.8" fill="#b9d4ff" opacity="0.55"/><circle cx="867" cy="167" r="0.8" fill="#b9d4ff" opacity="0.15"/><circle cx="1006" cy="250" r="0.8" fill="#b9d4ff" opacity="0.25"/><circle cx="121" cy="333" r="0.8" fill="#b9d4ff" opacity="0.35"/><circle cx="260" cy="416" r="0.8" fill="#b9d4ff" opacity="0.45000000000000007"/><circle cx="399" cy="499" r="0.8" fill="#b9d4ff" opacity="0.55"/><circle cx="538" cy="82" r="0.8" fill="#b9d4ff" opacity="0.15"/><circle cx="677" cy="165" r="2" fill="#b9d4ff" opacity="0.25"/><circle cx="816" cy="248" r="0.8" fill="#b9d4ff" opacity="0.35"/><circle cx="955" cy="331" r="0.8" fill="#b9d4ff" opacity="0.45000000000000007"/><circle cx="70" cy="414" r="0.8" fill="#b9d4ff" opacity="0.55"/><circle cx="209" cy="497" r="0.8" fill="#b9d4ff" opacity="0.15"/><circle cx="348" cy="80" r="0.8" fill="#b9d4ff" opacity="0.25"/><circle cx="487" cy="163" r="0.8" fill="#b9d4ff" opacity="0.35"/><circle cx="626" cy="246" r="0.8" fill="#b9d4ff" opacity="0.45000000000000007"/><circle cx="765" cy="329" r="2" fill="#b9d4ff" opacity="0.55"/><circle cx="904" cy="412" r="0.8" fill="#b9d4ff" opacity="0.15"/><circle cx="19" cy="495" r="0.8" fill="#b9d4ff" opacity="0.25"/><circle cx="158" cy="78" r="0.8" fill="#b9d4ff" opacity="0.35"/><circle cx="297" cy="161" r="0.8" fill="#b9d4ff" opacity="0.45000000000000007"/><circle cx="436" cy="244" r="0.8" fill="#b9d4ff" opacity="0.55"/><path d="M660 375 707 276 789 233 855 126 933 81" fill="none" stroke="#82b6ff" stroke-width="2" opacity=".7"/><g fill="#c7e1ff"><circle cx="660" cy="375" r="5"/><circle cx="707" cy="276" r="7"/><circle cx="789" cy="233" r="5"/><circle cx="855" cy="126" r="8"/><circle cx="933" cy="81" r="5"/></g><g font-family="Malgun Gothic,Arial,sans-serif"><text x="78" y="158" font-size="20" letter-spacing="4" fill="#82b6ff">SKYLOG</text><text x="76" y="246" font-size="36" font-weight="700" fill="#f1f6ff">Your path through the stars</text><text x="78" y="304" font-size="25" fill="#b6c6dc">Explore. Observe. Learn.</text></g></svg>